# xmcd
#
# Track frame offsets:
#  150
#  11878
#  22409
#  38414
#  51477
#  63197
#  76397
#  89226
#  105082
#  118912
#  132108
#  145756
#  161180
#  174870
#  187718
#  201176
#  214831
#  227030
#  241130
#  255725
#  267970
#  282309
#  293433
#  308000
#
# Disc length: 4253 seconds
#
# Revision: 0
# Processed by: cddbd v1.5.1PL2 Copyright (c) Steve Scherf et al.
# Submitted via: Collectorz.com_Music_Collector 6.11
#
DISCID=52109b18
DTITLE=Jimmy McCracklin - Modern Recordings, Vol. 2: Blues Blastin'
DYEAR=2004
DGENRE=Blues
TTITLE0=Gonna Tell Your Mother
TTITLE1=I Got Eyes for You
TTITLE2=Panic's On
TTITLE3=Couldn't Be a Dream
TTITLE4=My Mother Said
TTITLE5=Blues Blasters Boogie
TTITLE6=That Ain't Right
TTITLE7=Darlin' Share Your Love (Oh Baby)
TTITLE8=Give My Heart a Break AKA You Don't Seem to Understand
TTITLE9=Please Forgive Me Baby
TTITLE10=Let's Get Together [#]
TTITLE11=It Ain't No Use [#]
TTITLE12=Cold Hearted [#]
TTITLE13=Deceivin' Blues [#]
TTITLE14=Rockin' All Day [#]
TTITLE15=Oh! I'm in Love [#]
TTITLE16=I'll Get a Break Someday [#]
TTITLE17=Hamburger Joint [#]
TTITLE18=Lost Mind AKA Standing in the Back Door Crying - Jerry Thomas
TTITLE19=Don't Have to Worry AKA Jumpin' in the Heart of Town - Jerry Thomas
TTITLE20=Tired of Everybody
TTITLE21=What You Did to Me
TTITLE22=I've Got a Feeling
TTITLE23=People Are Wondering
EXTD=
EXTT0=
EXTT1=
EXTT2=
EXTT3=
EXTT4=
EXTT5=
EXTT6=
EXTT7=
EXTT8=
EXTT9=
EXTT10=
EXTT11=
EXTT12=
EXTT13=
EXTT14=
EXTT15=
EXTT16=
EXTT17=
EXTT18=
EXTT19=
EXTT20=
EXTT21=
EXTT22=
EXTT23=
PLAYORDER=
